<svg width="22" height="22" viewBox="0 0 22 22" fill="none" xmlns="http://www.w3.org/2000/svg">
<path d="M10.9999 19.4791C10.8257 19.4791 10.6515 19.4149 10.514 19.2774L4.94986 13.7133C4.68403 13.4474 4.68403 13.0074 4.94986 12.7416C5.2157 12.4758 5.6557 12.4758 5.92153 12.7416L10.9999 17.8199L16.0782 12.7416C16.344 12.4758 16.784 12.4758 17.0499 12.7416C17.3157 13.0074 17.3157 13.4474 17.0499 13.7133L11.4857 19.2774C11.3482 19.4149 11.174 19.4791 10.9999 19.4791Z" fill="#0D0D10"/>
<path d="M11 19.3233C10.6242 19.3233 10.3125 19.0116 10.3125 18.6358V3.20825C10.3125 2.83242 10.6242 2.52075 11 2.52075C11.3758 2.52075 11.6875 2.83242 11.6875 3.20825V18.6358C11.6875 19.0116 11.3758 19.3233 11 19.3233Z" fill="#0D0D10"/>
</svg>
