<svg width="20" height="20" viewBox="0 0 20 20" fill="none" xmlns="http://www.w3.org/2000/svg">
<path d="M9.99976 2.49951C14.1394 2.49951 17.4996 5.8599 17.4998 9.99951C17.4998 14.1393 14.1395 17.4995 9.99976 17.4995C5.86014 17.4993 2.49976 14.1392 2.49976 9.99951C2.49993 5.86001 5.86025 2.49969 9.99976 2.49951ZM11.3376 6.36963C10.8043 5.93499 10.0292 5.93499 9.49585 6.36963L9.3855 6.46924C8.81877 7.03632 8.81867 7.96375 9.3855 8.53076L9.39624 8.5415H7.08374C6.28194 8.5415 5.62493 9.19776 5.62476 9.99951C5.62476 10.8014 6.28184 11.4585 7.08374 11.4585H9.39624L9.3855 11.4692C8.81877 12.0363 8.81867 12.9638 9.3855 13.5308C9.67501 13.8203 10.0493 13.9585 10.4167 13.9585C10.7842 13.9585 11.1585 13.8203 11.448 13.5308L13.948 11.0308C14.5148 10.4638 14.5147 9.53632 13.948 8.96924L11.448 6.46924L11.3376 6.36963Z" fill="url(#paint0_linear_2001_24710)" stroke="url(#paint1_linear_2001_24710)" stroke-width="1.66667"/>
<defs>
<linearGradient id="paint0_linear_2001_24710" x1="16.0472" y1="1.6665" x2="3.43769" y2="2.06588" gradientUnits="userSpaceOnUse">
<stop stop-color="#2A8AE4"/>
<stop offset="1" stop-color="#3A49F9"/>
</linearGradient>
<linearGradient id="paint1_linear_2001_24710" x1="16.0472" y1="1.6665" x2="3.43769" y2="2.06588" gradientUnits="userSpaceOnUse">
<stop stop-color="#2A8AE4"/>
<stop offset="1" stop-color="#3A49F9"/>
</linearGradient>
</defs>
</svg>
