<svg width="20" height="20" viewBox="0 0 20 20" fill="none" xmlns="http://www.w3.org/2000/svg">
<path d="M17.4746 15V15.834C17.4746 16.1907 17.474 16.4616 17.4434 16.6963C17.4136 16.9236 17.3628 17.0488 17.3096 17.126C17.2372 17.2309 16.9781 17.4999 15.8086 17.5H4.1416C2.97182 17.5 2.71201 17.2309 2.63965 17.126C2.58653 17.0488 2.53651 16.9233 2.50684 16.6963C2.47616 16.4616 2.47461 16.1907 2.47461 15.834V15H17.4746Z" fill="url(#paint0_linear_2001_24717)" stroke="url(#paint1_linear_2001_24717)" stroke-width="1.66667"/>
<path d="M12.0082 4.31696C12.0499 4.1503 12.0749 3.99196 12.0832 3.81696C12.1082 2.8503 11.5165 2.0003 10.5832 1.7503C9.18319 1.36696 7.91652 2.41696 7.91652 3.7503C7.91652 3.9503 7.94152 4.13363 7.99152 4.31696C4.98319 4.95863 2.72485 7.63363 2.72485 10.8336V12.0836C2.72485 12.542 3.09985 12.917 3.55819 12.917H16.4332C16.8915 12.917 17.2665 12.542 17.2665 12.0836V10.8336C17.2665 7.63363 15.0165 4.96696 12.0082 4.31696ZM12.4999 9.79196H7.49985C7.15819 9.79196 6.87485 9.50863 6.87485 9.16697C6.87485 8.8253 7.15819 8.54197 7.49985 8.54197H12.4999C12.8415 8.54197 13.1249 8.8253 13.1249 9.16697C13.1249 9.50863 12.8415 9.79196 12.4999 9.79196Z" fill="url(#paint2_linear_2001_24717)"/>
<defs>
<linearGradient id="paint0_linear_2001_24717" x1="16.0221" y1="14.167" x2="3.59929" y2="15.7408" gradientUnits="userSpaceOnUse">
<stop stop-color="#2A8AE4"/>
<stop offset="1" stop-color="#3A49F9"/>
</linearGradient>
<linearGradient id="paint1_linear_2001_24717" x1="16.0221" y1="14.167" x2="3.59929" y2="15.7408" gradientUnits="userSpaceOnUse">
<stop stop-color="#2A8AE4"/>
<stop offset="1" stop-color="#3A49F9"/>
</linearGradient>
<linearGradient id="paint2_linear_2001_24717" x1="15.2718" y1="1.67041" x2="4.2774" y2="2.12066" gradientUnits="userSpaceOnUse">
<stop stop-color="#2A8AE4"/>
<stop offset="1" stop-color="#3A49F9"/>
</linearGradient>
</defs>
</svg>
