<svg width="28" height="28" viewBox="0 0 28 28" fill="none" xmlns="http://www.w3.org/2000/svg">
<path d="M19.8334 24.5H11.9934C10.1034 24.5 8.29511 23.695 7.03511 22.3067L2.91678 17.78C0.956777 15.6333 0.956777 12.39 2.91678 10.2317L7.03511 5.705C8.29511 4.305 10.1034 3.5 11.9934 3.5H19.8334C23.5318 3.5 26.5418 6.51 26.5418 10.2083V17.7917C26.5418 21.49 23.5318 24.5 19.8334 24.5ZM11.9934 5.25C10.6051 5.25 9.26344 5.845 8.33011 6.87167L4.20011 11.41C2.85844 12.8917 2.85844 15.12 4.20011 16.6017L8.31844 21.1283C9.25178 22.155 10.5934 22.75 11.9818 22.75H19.8334C22.5634 22.75 24.7918 20.5217 24.7918 17.7917V10.2083C24.7918 7.47833 22.5634 5.25 19.8334 5.25H11.9934Z" fill="#9E9EA7"/>
<path d="M18.6667 17.7567C18.445 17.7567 18.2233 17.675 18.0483 17.5L12.285 11.725C11.9467 11.3867 11.9467 10.8267 12.285 10.4884C12.6233 10.15 13.1833 10.15 13.5217 10.4884L19.285 16.2634C19.6233 16.6017 19.6233 17.1617 19.285 17.5C19.11 17.675 18.8883 17.7567 18.6667 17.7567Z" fill="#9E9EA7"/>
<path d="M12.9033 17.7568C12.6817 17.7568 12.46 17.6751 12.285 17.5001C11.9467 17.1618 11.9467 16.6018 12.285 16.2634L18.0483 10.5001C18.3867 10.1618 18.9467 10.1618 19.285 10.5001C19.6233 10.8384 19.6233 11.3984 19.285 11.7368L13.5217 17.5001C13.3467 17.6751 13.125 17.7568 12.9033 17.7568Z" fill="#9E9EA7"/>
</svg>
