<svg width="22" height="22" viewBox="0 0 22 22" fill="none" xmlns="http://www.w3.org/2000/svg">
<path d="M13.2277 17.2518C13.0535 17.2518 12.8794 17.1876 12.7419 17.0501C12.476 16.7843 12.476 16.3443 12.7419 16.0784L17.8202 11.0001L12.7419 5.92177C12.476 5.65594 12.476 5.21594 12.7419 4.95011C13.0077 4.68427 13.4477 4.68427 13.7135 4.95011L19.2777 10.5143C19.5435 10.7801 19.5435 11.2201 19.2777 11.4859L13.7135 17.0501C13.576 17.1876 13.4019 17.2518 13.2277 17.2518Z" fill="#0D0D10"/>
<path d="M18.636 11.6875H3.2085C2.83266 11.6875 2.521 11.3758 2.521 11C2.521 10.6242 2.83266 10.3125 3.2085 10.3125H18.636C19.0118 10.3125 19.3235 10.6242 19.3235 11C19.3235 11.3758 19.0118 11.6875 18.636 11.6875Z" fill="#0D0D10"/>
</svg>
