<svg width="16" height="16" viewBox="0 0 16 16" fill="none" xmlns="http://www.w3.org/2000/svg">
<path d="M9.92688 12.1465H4.06687C3.72021 12.1465 3.39353 12.1132 3.1002 12.0465C2.94687 12.0265 2.76021 11.9732 2.56687 11.8998C1.68021 11.5665 0.633545 10.7465 0.633545 8.7065V5.27315C0.633545 3.09315 1.88687 1.83984 4.06687 1.83984H9.92688C11.7669 1.83984 12.9535 2.71982 13.2735 4.31982C13.3335 4.61316 13.3602 4.92649 13.3602 5.27315V8.7065C13.3602 10.8998 12.1135 12.1465 9.92688 12.1465ZM4.07353 2.85319C2.43353 2.85319 1.6402 3.6465 1.6402 5.2865V8.71985C1.6402 9.91318 2.06021 10.6465 2.92021 10.9732C3.05354 11.0199 3.18021 11.0532 3.30021 11.0732C3.55355 11.1265 3.80019 11.1532 4.07353 11.1532H9.93353C11.5735 11.1532 12.3669 10.3598 12.3669 8.71985V5.2865C12.3669 5.0065 12.3469 4.75983 12.3002 4.53316C12.0735 3.39983 11.3002 2.85319 9.93353 2.85319H4.07353Z" fill="#6E6E77"/>
<path d="M11.9267 14.1466H6.06665C5.49998 14.1466 4.99331 14.0666 4.55997 13.8999C3.57997 13.5332 2.93997 12.7599 2.71997 11.6532C2.68663 11.4866 2.73998 11.3132 2.85998 11.1999C2.97998 11.0799 3.15332 11.0332 3.31998 11.0732C3.53998 11.1199 3.78665 11.1466 4.06665 11.1466H9.92665C11.5667 11.1466 12.36 10.3532 12.36 8.71325V5.2799C12.36 4.9999 12.34 4.75323 12.2933 4.52656C12.26 4.35989 12.3133 4.19323 12.4267 4.07323C12.5467 3.95323 12.7133 3.89989 12.88 3.93989C14.48 4.26656 15.36 5.45323 15.36 7.2799V10.7132C15.36 12.8999 14.1133 14.1466 11.9267 14.1466ZM3.94665 12.1466C4.15998 12.5332 4.47998 12.8066 4.91998 12.9666C5.23998 13.0866 5.62663 13.1466 6.0733 13.1466H11.9333C13.5733 13.1466 14.3666 12.3532 14.3666 10.7132V7.2799C14.3666 6.22656 14.04 5.52657 13.3666 5.1599C13.3666 5.1999 13.3666 5.2399 13.3666 5.2799V8.71325C13.3666 10.8932 12.1133 12.1466 9.9333 12.1466H4.0733C4.02663 12.1466 3.98665 12.1466 3.94665 12.1466Z" fill="#6E6E77"/>
<path d="M7 9.26025C5.75333 9.26025 4.73999 8.24691 4.73999 7.00024C4.73999 5.75358 5.75333 4.74023 7 4.74023C8.24667 4.74023 9.26001 5.75358 9.26001 7.00024C9.26001 8.24691 8.24667 9.26025 7 9.26025ZM7 5.74023C6.30667 5.74023 5.73999 6.30691 5.73999 7.00024C5.73999 7.69358 6.30667 8.26025 7 8.26025C7.69333 8.26025 8.26001 7.69358 8.26001 7.00024C8.26001 6.30691 7.69333 5.74023 7 5.74023Z" fill="#6E6E77"/>
<path d="M3.18677 8.96655C2.91343 8.96655 2.68677 8.73989 2.68677 8.46655V5.5332C2.68677 5.25987 2.91343 5.0332 3.18677 5.0332C3.4601 5.0332 3.68677 5.25987 3.68677 5.5332V8.46655C3.68677 8.73989 3.46677 8.96655 3.18677 8.96655Z" fill="#6E6E77"/>
<path d="M10.8066 8.96655C10.5333 8.96655 10.3066 8.73989 10.3066 8.46655V5.5332C10.3066 5.25987 10.5333 5.0332 10.8066 5.0332C11.08 5.0332 11.3066 5.25987 11.3066 5.5332V8.46655C11.3066 8.73989 11.0866 8.96655 10.8066 8.96655Z" fill="#6E6E77"/>
</svg>
