<svg width="28" height="28" viewBox="0 0 28 28" fill="none" xmlns="http://www.w3.org/2000/svg">
<path d="M8.16667 3.5H5.83333C5.21449 3.5 4.621 3.74583 4.18342 4.18342C3.74583 4.621 3.5 5.21449 3.5 5.83333V8.16667M19.8333 3.5H22.1667C22.7855 3.5 23.379 3.74583 23.8166 4.18342C24.2542 4.621 24.5 5.21449 24.5 5.83333V8.16667M18.6667 9.33333V11.6667M9.33333 9.33333V11.6667M10.5 18.6667C10.5 18.6667 11.6667 19.8333 14 19.8333C16.3333 19.8333 17.5 18.6667 17.5 18.6667M14 9.33333V15.1667H12.8333M8.16667 24.5H5.83333C5.21449 24.5 4.621 24.2542 4.18342 23.8166C3.74583 23.379 3.5 22.7855 3.5 22.1667V19.8333M19.8333 24.5H22.1667C22.7855 24.5 23.379 24.2542 23.8166 23.8166C24.2542 23.379 24.5 22.7855 24.5 22.1667V19.8333" stroke="#2168ED" stroke-width="1.75" stroke-linecap="round" stroke-linejoin="round"/>
</svg>
