<svg width="20" height="20" viewBox="0 0 20 20" fill="none" xmlns="http://www.w3.org/2000/svg">
<path d="M10.0005 2.50146C10.246 2.50151 10.4518 2.53815 10.5698 2.58154V2.58057L15.1245 4.28857L15.1265 4.28955C15.3724 4.38092 15.6432 4.59444 15.856 4.90088C16.0686 5.20723 16.1752 5.5362 16.1753 5.79932V7.32471C16.1753 7.59732 16.0487 7.84092 15.8423 7.98779L15.8325 7.99463L6.66553 14.7104C6.36546 14.9301 5.96241 14.9255 5.67822 14.7104L5.67529 14.7085L4.47607 13.8091H4.47705C4.3361 13.7028 4.16387 13.4942 4.02588 13.2183C3.88792 12.9423 3.82477 12.6816 3.82471 12.5083V5.79932C3.82481 5.5362 3.93137 5.20723 4.14404 4.90088C4.35681 4.59445 4.62759 4.38093 4.87354 4.28955L4.87549 4.28857L9.4292 2.58057L9.43018 2.58154C9.54829 2.53811 9.75474 2.50146 10.0005 2.50146Z" fill="url(#paint0_linear_2001_24697)" stroke="url(#paint1_linear_2001_24697)" stroke-width="1.66667"/>
<path d="M15.6833 10.2834C16.2333 9.88335 17.0083 10.275 17.0083 10.9584V12.525C17.0083 13.2 16.5666 14.075 16.0249 14.4834L11.4666 17.8917C11.0666 18.1834 10.5333 18.3334 9.99993 18.3334C9.46659 18.3334 8.93326 18.1834 8.53326 17.8834L7.84159 17.3667C7.39159 17.0334 7.39159 16.3584 7.84993 16.025L15.6833 10.2834Z" fill="url(#paint2_linear_2001_24697)"/>
<defs>
<linearGradient id="paint0_linear_2001_24697" x1="15.0857" y1="1.66846" x2="4.48103" y2="2.00381" gradientUnits="userSpaceOnUse">
<stop stop-color="#2A8AE4"/>
<stop offset="1" stop-color="#3A49F9"/>
</linearGradient>
<linearGradient id="paint1_linear_2001_24697" x1="15.0857" y1="1.66846" x2="4.48103" y2="2.00381" gradientUnits="userSpaceOnUse">
<stop stop-color="#2A8AE4"/>
<stop offset="1" stop-color="#3A49F9"/>
</linearGradient>
<linearGradient id="paint2_linear_2001_24697" x1="15.7047" y1="10.1226" x2="8.51734" y2="10.386" gradientUnits="userSpaceOnUse">
<stop stop-color="#2A8AE4"/>
<stop offset="1" stop-color="#3A49F9"/>
</linearGradient>
</defs>
</svg>
