<svg width="20" height="20" viewBox="0 0 20 20" fill="none" xmlns="http://www.w3.org/2000/svg">
<path d="M3.67855 12.1548L4.00313 11.8302C4.10787 11.7255 4.16683 11.5835 4.16683 11.4354V8.33333C4.16683 5.11168 6.77851 2.50001 10.0002 2.5C13.2218 2.49999 15.8335 5.11167 15.8335 8.33333V11.4353C15.8335 11.5834 15.8923 11.7255 15.9971 11.8302L16.3217 12.1549C16.4211 12.2543 16.4709 12.304 16.5105 12.3592C16.5854 12.4634 16.6351 12.5836 16.6558 12.7103C16.6668 12.7773 16.667 12.8476 16.667 12.9882C16.667 13.3095 16.667 13.4701 16.6233 13.5997C16.5401 13.8463 16.3465 14.0398 16.1 14.1229C15.9704 14.1666 15.8095 14.1667 15.4882 14.1667H4.51188C4.19059 14.1667 4.02989 14.1666 3.90031 14.1229C3.65375 14.0398 3.46037 13.8463 3.37721 13.5997C3.3335 13.4701 3.3335 13.3095 3.3335 12.9882C3.3335 12.8476 3.3335 12.7773 3.3445 12.7103C3.36528 12.5836 3.41488 12.4634 3.48975 12.3592C3.52936 12.304 3.57913 12.2542 3.67855 12.1548ZM12.5002 14.1667V15C12.5002 16.3807 11.3809 17.5 10.0002 17.5C8.61945 17.5 7.50016 16.3807 7.50016 15V14.1667H12.5002Z" stroke="#2168ED" stroke-width="1.375" stroke-linecap="round" stroke-linejoin="round"/>
</svg>
