<svg width="20" height="20" viewBox="0 0 20 20" fill="none" xmlns="http://www.w3.org/2000/svg">
<path d="M12.5002 18.9584H7.50016C3.82516 18.9584 2.7085 17.8417 2.7085 14.1667V5.83341C2.7085 2.15841 3.82516 1.04175 7.50016 1.04175H12.5002C16.1752 1.04175 17.2918 2.15841 17.2918 5.83341V14.1667C17.2918 17.8417 16.1752 18.9584 12.5002 18.9584ZM7.50016 2.29175C4.51683 2.29175 3.9585 2.85841 3.9585 5.83341V14.1667C3.9585 17.1417 4.51683 17.7084 7.50016 17.7084H12.5002C15.4835 17.7084 16.0418 17.1417 16.0418 14.1667V5.83341C16.0418 2.85841 15.4835 2.29175 12.5002 2.29175H7.50016Z" fill="url(#paint0_linear_2001_19238)"/>
<path d="M11.6668 5.20825H8.3335C7.99183 5.20825 7.7085 4.92492 7.7085 4.58325C7.7085 4.24159 7.99183 3.95825 8.3335 3.95825H11.6668C12.0085 3.95825 12.2918 4.24159 12.2918 4.58325C12.2918 4.92492 12.0085 5.20825 11.6668 5.20825Z" fill="url(#paint1_linear_2001_19238)"/>
<path d="M10.0002 16.5499C8.94183 16.5499 8.0835 15.6916 8.0835 14.6332C8.0835 13.5749 8.94183 12.7166 10.0002 12.7166C11.0585 12.7166 11.9168 13.5749 11.9168 14.6332C11.9168 15.6916 11.0585 16.5499 10.0002 16.5499ZM10.0002 13.9582C9.6335 13.9582 9.3335 14.2582 9.3335 14.6249C9.3335 14.9916 9.6335 15.2916 10.0002 15.2916C10.3668 15.2916 10.6668 14.9916 10.6668 14.6249C10.6668 14.2582 10.3668 13.9582 10.0002 13.9582Z" fill="url(#paint2_linear_2001_19238)"/>
<defs>
<linearGradient id="paint0_linear_2001_19238" x1="15.2914" y1="1.04175" x2="4.25434" y2="1.32629" gradientUnits="userSpaceOnUse">
<stop stop-color="#2A8AE4"/>
<stop offset="1" stop-color="#3A49F9"/>
</linearGradient>
<linearGradient id="paint1_linear_2001_19238" x1="11.6631" y1="3.95825" x2="8.23822" y2="4.356" gradientUnits="userSpaceOnUse">
<stop stop-color="#2A8AE4"/>
<stop offset="1" stop-color="#3A49F9"/>
</linearGradient>
<linearGradient id="paint2_linear_2001_19238" x1="11.391" y1="12.7166" x2="8.49081" y2="12.8084" gradientUnits="userSpaceOnUse">
<stop stop-color="#2A8AE4"/>
<stop offset="1" stop-color="#3A49F9"/>
</linearGradient>
</defs>
</svg>
