<svg width="16" height="16" viewBox="0 0 16 16" fill="none" xmlns="http://www.w3.org/2000/svg">
<g opacity="0.4">
<path fill-rule="evenodd" clip-rule="evenodd" d="M14.0666 5.33603C14.0288 5.33381 13.9886 5.33292 13.9459 5.33336H12.2626C10.8839 5.33336 9.70459 6.4187 9.70459 7.83336C9.70459 9.24803 10.8846 10.3334 12.2626 10.3334H13.9459C13.9886 10.3338 14.029 10.3329 14.0673 10.3307C14.3506 10.3136 14.6181 10.1941 14.8198 9.99442C15.0216 9.79474 15.1439 9.52852 15.1639 9.24536C15.1666 9.20536 15.1666 9.16203 15.1666 9.12203V6.5447C15.1666 6.5047 15.1666 6.46136 15.1639 6.42136C15.1439 6.13821 15.0216 5.87199 14.8198 5.67231C14.6181 5.47263 14.3499 5.35311 14.0666 5.33603ZM12.1153 8.50003C12.4699 8.50003 12.7573 8.20136 12.7573 7.83336C12.7573 7.46536 12.4699 7.1667 12.1153 7.1667C11.7599 7.1667 11.4726 7.46536 11.4726 7.83336C11.4726 8.20136 11.7599 8.50003 12.1153 8.50003Z" fill="black"/>
<path fill-rule="evenodd" clip-rule="evenodd" d="M13.9453 11.3333C13.9683 11.3324 13.9912 11.3369 14.0122 11.3465C14.0332 11.3561 14.0516 11.3706 14.0659 11.3886C14.0803 11.4067 14.0902 11.4279 14.0948 11.4505C14.0995 11.4731 14.0987 11.4964 14.0926 11.5187C13.9593 11.9933 13.7466 12.3987 13.4059 12.7387C12.9066 13.2387 12.2739 13.4593 11.4926 13.5647C10.7326 13.6667 9.76258 13.6667 8.53725 13.6667H7.12925C5.90392 13.6667 4.93325 13.6667 4.17392 13.5647C3.39259 13.4593 2.75992 13.238 2.26059 12.7393C1.76192 12.24 1.54059 11.6073 1.43525 10.826C1.33325 10.066 1.33325 9.096 1.33325 7.87067V7.796C1.33325 6.57067 1.33325 5.6 1.43525 4.84C1.54059 4.05867 1.76192 3.426 2.26059 2.92667C2.75992 2.428 3.39259 2.20667 4.17392 2.10133C4.93392 2 5.90392 2 7.12925 2H8.53725C9.76258 2 10.7333 2 11.4926 2.102C12.2739 2.20733 12.9066 2.42867 13.4059 2.92733C13.7466 3.26867 13.9593 3.67333 14.0926 4.148C14.0987 4.17025 14.0995 4.19362 14.0948 4.21621C14.0902 4.23881 14.0803 4.26 14.0659 4.27805C14.0516 4.29611 14.0332 4.31053 14.0122 4.32013C13.9912 4.32974 13.9683 4.33426 13.9453 4.33333H12.2626C10.3713 4.33333 8.70459 5.82667 8.70459 7.83333C8.70459 9.84 10.3713 11.3333 12.2626 11.3333H13.9453ZM3.83325 4.66667C3.70064 4.66667 3.57347 4.71935 3.4797 4.81311C3.38593 4.90688 3.33325 5.03406 3.33325 5.16667C3.33325 5.29927 3.38593 5.42645 3.4797 5.52022C3.57347 5.61399 3.70064 5.66667 3.83325 5.66667H6.49992C6.63253 5.66667 6.7597 5.61399 6.85347 5.52022C6.94724 5.42645 6.99992 5.29927 6.99992 5.16667C6.99992 5.03406 6.94724 4.90688 6.85347 4.81311C6.7597 4.71935 6.63253 4.66667 6.49992 4.66667H3.83325Z" fill="black"/>
</g>
</svg>
