<svg width="20" height="20" viewBox="0 0 20 20" fill="none" xmlns="http://www.w3.org/2000/svg">
<mask id="path-1-inside-1_2001_24703" fill="white">
<path d="M15.675 5.20807H16.8084C16.65 4.98307 16.4834 4.77474 16.3084 4.56641L15.675 5.20807Z"/>
</mask>
<path d="M15.675 5.20807H16.8084C16.65 4.98307 16.4834 4.77474 16.3084 4.56641L15.675 5.20807Z" fill="url(#paint0_linear_2001_24703)"/>
<path d="M15.675 5.20807L14.4889 4.03729L11.6883 6.87474H15.675V5.20807ZM16.8084 5.20807V6.87474H20.0192L18.1714 4.24892L16.8084 5.20807ZM16.3084 4.56641L17.5846 3.49442L16.4076 2.09329L15.1222 3.39562L16.3084 4.56641ZM15.675 5.20807V6.87474H16.8084V5.20807V3.54141H15.675V5.20807ZM16.8084 5.20807L18.1714 4.24892C17.9753 3.9702 17.7756 3.72182 17.5846 3.49442L16.3084 4.56641L15.0322 5.63839C15.1912 5.82766 15.3248 5.99595 15.4454 6.16723L16.8084 5.20807ZM16.3084 4.56641L15.1222 3.39562L14.4889 4.03729L15.675 5.20807L16.8612 6.37886L17.4946 5.73719L16.3084 4.56641Z" fill="url(#paint1_linear_2001_24703)" mask="url(#path-1-inside-1_2001_24703)"/>
<path d="M15.4334 3.68311C15.2251 3.50811 15.0167 3.34144 14.7917 3.18311V4.31644L15.4334 3.68311Z" fill="url(#paint2_linear_2001_24703)"/>
<path d="M16.3167 4.56637L18.775 2.10804C19.0167 1.86637 19.0167 1.46637 18.775 1.22471C18.5333 0.98304 18.1333 0.98304 17.8917 1.22471L15.4333 3.68304C15.75 3.95804 16.0417 4.25804 16.3167 4.56637Z" fill="url(#paint3_linear_2001_24703)"/>
<path d="M14.7917 2.5C14.7917 2.15833 14.5084 1.875 14.1667 1.875C13.8334 1.875 13.5667 2.14167 13.55 2.46667C13.9834 2.675 14.4 2.90833 14.7917 3.18333V2.5Z" fill="url(#paint4_linear_2001_24703)"/>
<path d="M18.125 5.8335C18.125 5.49183 17.8417 5.2085 17.5 5.2085H16.8083C17.0833 5.60016 17.325 6.01683 17.525 6.45016C17.8584 6.4335 18.125 6.16683 18.125 5.8335Z" fill="url(#paint5_linear_2001_24703)"/>
<path d="M10.625 12.2917H10.875C11.2 12.2917 11.4583 12 11.4583 11.6417C11.4583 11.1917 11.3333 11.125 11.05 11.025L10.625 10.875V12.2917Z" fill="url(#paint6_linear_2001_24703)"/>
<path d="M17.5334 6.44984C17.5251 6.44984 17.5167 6.45817 17.5001 6.45817H14.1667C14.0834 6.45817 14.0084 6.4415 13.9251 6.40817C13.7751 6.3415 13.6501 6.22484 13.5834 6.0665C13.5584 5.9915 13.5417 5.9165 13.5417 5.83317V2.49984C13.5417 2.4915 13.5501 2.48317 13.5501 2.4665C12.4667 1.95817 11.2667 1.6665 10.0001 1.6665C5.40008 1.6665 1.66675 5.39984 1.66675 9.99984C1.66675 14.5998 5.40008 18.3332 10.0001 18.3332C14.6001 18.3332 18.3334 14.5998 18.3334 9.99984C18.3334 8.73317 18.0417 7.53317 17.5334 6.44984ZM11.4584 9.84984C11.9917 10.0332 12.7084 10.4248 12.7084 11.6498C12.7084 12.6915 11.8834 13.5498 10.8751 13.5498H10.6251V13.7582C10.6251 14.0998 10.3417 14.3832 10.0001 14.3832C9.65841 14.3832 9.37508 14.0998 9.37508 13.7582V13.5498H9.30841C8.20008 13.5498 7.29175 12.6165 7.29175 11.4665C7.29175 11.1165 7.57508 10.8332 7.91675 10.8332C8.25841 10.8332 8.54175 11.1165 8.54175 11.4582C8.54175 11.9165 8.88341 12.2915 9.30841 12.2915H9.37508V10.4415L8.54175 10.1498C8.00841 9.9665 7.29175 9.57484 7.29175 8.34984C7.29175 7.30817 8.11675 6.44984 9.12508 6.44984H9.37508V6.24984C9.37508 5.90817 9.65841 5.62484 10.0001 5.62484C10.3417 5.62484 10.6251 5.90817 10.6251 6.24984V6.45817H10.6917C11.8001 6.45817 12.7084 7.3915 12.7084 8.5415C12.7084 8.88317 12.4251 9.1665 12.0834 9.1665C11.7417 9.1665 11.4584 8.88317 11.4584 8.5415C11.4584 8.08317 11.1167 7.70817 10.6917 7.70817H10.6251V9.55817L11.4584 9.84984Z" fill="url(#paint7_linear_2001_24703)"/>
<path d="M8.54175 8.3585C8.54175 8.8085 8.66675 8.87516 8.95008 8.97516L9.37508 9.12516V7.7085H9.12508C8.80841 7.7085 8.54175 8.00016 8.54175 8.3585Z" fill="url(#paint8_linear_2001_24703)"/>
<defs>
<linearGradient id="paint0_linear_2001_24703" x1="16.6529" y1="4.56641" x2="15.7973" y2="4.61427" gradientUnits="userSpaceOnUse">
<stop stop-color="#2A8AE4"/>
<stop offset="1" stop-color="#3A49F9"/>
</linearGradient>
<linearGradient id="paint1_linear_2001_24703" x1="16.6529" y1="4.56641" x2="15.7973" y2="4.61427" gradientUnits="userSpaceOnUse">
<stop stop-color="#2A8AE4"/>
<stop offset="1" stop-color="#3A49F9"/>
</linearGradient>
<linearGradient id="paint2_linear_2001_24703" x1="15.3454" y1="3.18311" x2="14.8596" y2="3.19182" gradientUnits="userSpaceOnUse">
<stop stop-color="#2A8AE4"/>
<stop offset="1" stop-color="#3A49F9"/>
</linearGradient>
<linearGradient id="paint3_linear_2001_24703" x1="18.473" y1="1.04346" x2="15.8077" y2="1.12788" gradientUnits="userSpaceOnUse">
<stop stop-color="#2A8AE4"/>
<stop offset="1" stop-color="#3A49F9"/>
</linearGradient>
<linearGradient id="paint4_linear_2001_24703" x1="14.6214" y1="1.875" x2="13.6819" y2="1.90324" gradientUnits="userSpaceOnUse">
<stop stop-color="#2A8AE4"/>
<stop offset="1" stop-color="#3A49F9"/>
</linearGradient>
<linearGradient id="paint5_linear_2001_24703" x1="17.9444" y1="5.2085" x2="16.9484" y2="5.24195" gradientUnits="userSpaceOnUse">
<stop stop-color="#2A8AE4"/>
<stop offset="1" stop-color="#3A49F9"/>
</linearGradient>
<linearGradient id="paint6_linear_2001_24703" x1="11.344" y1="10.875" x2="10.7131" y2="10.8868" gradientUnits="userSpaceOnUse">
<stop stop-color="#2A8AE4"/>
<stop offset="1" stop-color="#3A49F9"/>
</linearGradient>
<linearGradient id="paint7_linear_2001_24703" x1="16.0472" y1="1.6665" x2="3.43769" y2="2.06588" gradientUnits="userSpaceOnUse">
<stop stop-color="#2A8AE4"/>
<stop offset="1" stop-color="#3A49F9"/>
</linearGradient>
<linearGradient id="paint8_linear_2001_24703" x1="9.26077" y1="7.7085" x2="8.62988" y2="7.72025" gradientUnits="userSpaceOnUse">
<stop stop-color="#2A8AE4"/>
<stop offset="1" stop-color="#3A49F9"/>
</linearGradient>
</defs>
</svg>
